# xmcd
#
# Track frame offsets:
#	150
#	10848
#	22906
#	43128
#	59625
#	81006
#	102851
#	117481
#	136300
#	154422
#	174344
#	189409
#	212549
#	231791
#	253715
#	273794
#	292488
#	312124
#	330215
#	338822
#
# Disc length: 4748 seconds
#
# Revision: 1
# Processed by: cddbd v1.5PL3 Copyright (c) Steve Scherf et al.
# Submitted via: audiograbber 1.82.01
#
DISCID=18128a14
DTITLE=Bee Gees - MTV History 2000(cd2)
DYEAR=1999
DGENRE=Rock
TTITLE0=Massachusetts
TTITLE1=Words
TTITLE2=Closer Than Close
TTITLE3=Lonely days
TTITLE4=Stayin' Alive
TTITLE5=Too Much Heaven
TTITLE6=More Than A Woman
TTITLE7=Love You Inside Out
TTITLE8=How deep Is Your Love
TTITLE9=I Still Love You
TTITLE10=If I Can't Have You
TTITLE11=Spirits (Having Flown)
TTITLE12=Living eyes
TTITLE13=Wind Of Change
TTITLE14=Wildflower
TTITLE15=Nothing Could Be Good
TTITLE16=Living Together
TTITLE17=Cryinf Everyday
TTITLE18=And The Sun Will Shine
TTITLE19=Mellody Fair
EXTD=
EXTT0=
EXTT1=
EXTT2=
EXTT3=
EXTT4=
EXTT5=
EXTT6=
EXTT7=
EXTT8=
EXTT9=
EXTT10=
EXTT11=
EXTT12=
EXTT13=
EXTT14=
EXTT15=
EXTT16=
EXTT17=
EXTT18=
EXTT19=
PLAYORDER=
